# xmcd CD database file
#
# Track frame offsets:
#	150
#	4562
#	19849
#	38163
#	51171
#	73285
#	88578
#	102484
#	113559
#	125963
#	138289
#	154299
#
# Disc length: 2208 seconds
#
# Revision: 1
# Processed by: cddbd v1.5.2PL0 Copyright (c) Steve Scherf et al.
# Submitted via: CDex 1.51
#
DISCID=a3089e0c
DTITLE=COP - XXX 1978-2008 (disk 1)
DYEAR=2009
DGENRE=Bluegrass
TTITLE0=uvod 1/2
TTITLE1=Dva tulaci (Pig In A Pen)
TTITLE2=Myslim na Colorado (Cheap Love Affairs)
TTITLE3=(Uncle Pen)
TTITLE4=Cumberland v horach (Cumberland Mountain Number Nine)
TTITLE5=Lady
TTITLE6=Nad ranem
TTITLE7=Kouli (I've Just Seen A Face)
TTITLE8=historka o srne
TTITLE9=Co dal (Cash On the Barrelhead)
TTITLE10=Osud
TTITLE11=Jednim tahem
EXTD=YEAR: 2009
EXTT0=
EXTT1=
EXTT2=
EXTT3=
EXTT4=
EXTT5=
EXTT6=
EXTT7=
EXTT8=
EXTT9=
EXTT10=
EXTT11=
PLAYORDER=
